<?xml version="1.0" encoding="utf-8"?>
<!-- Generator: Adobe Illustrator 19.0.0, SVG Export Plug-In . SVG Version: 6.00 Build 0)  -->
<svg version="1.1" id="Layer_1" xmlns="http://www.w3.org/2000/svg" xmlns:xlink="http://www.w3.org/1999/xlink" x="0px" y="0px"
	 width="595.3px" height="841.9px" viewBox="0 0 595.3 841.9" enable-background="new 0 0 595.3 841.9" xml:space="preserve">
<g id="XMLID_95_">
	<defs>
		<rect id="XMLID_6_" width="595.3" height="841.9"/>
	</defs>
	<clipPath id="XMLID_138_">
		<use xlink:href="#XMLID_6_"  overflow="visible"/>
	</clipPath>
	<g id="XMLID_5_" clip-path="url(#XMLID_138_)">
		<rect id="XMLID_1_" fill="#FCD6A7" width="595.3" height="841.9"/>
		<g id="XMLID_98_">
			<path id="XMLID_136_" fill="#FDD7AA" d="M374,569.8C249.3,590.9,124.7,612,0,633.1v33.3C124,631.7,248.7,599.5,374,569.8z"/>
			<path id="XMLID_137_" fill="#489E9D" d="M595.3,520.1V397.4C398,364.1,199.4,339.2,0,322.7v310.4c124.7-21.1,249.3-42.2,374-63.3
				C447.5,552.4,521.3,535.8,595.3,520.1z"/>
		</g>
		<g id="XMLID_94_">
			<g id="XMLID_2_">
				<path id="XMLID_89_" fill="#6CC0A9" d="M0,322.7c199.4,16.5,398,41.4,595.3,74.6v-31.7C399.9,309.6,200.6,265.6,0,234.1V322.7z"
					/>
				<path id="XMLID_129_" fill="#97A78A" d="M187.2,214.7l20.8,43.4c57,11.4,113.8,23.9,170.3,37.3l-20.1-45.5
					C301.4,237.3,244.3,225.5,187.2,214.7z"/>
				<path id="XMLID_132_" fill="#95AA67" d="M374,253.3l20.2,45.9c54.5,13.1,108.7,27.2,162.7,42.1L532,290.9
					C479.6,277.7,426.9,265.1,374,253.3z"/>
				<path id="XMLID_133_" fill="#778E79" d="M101.4,142.6C67.7,135.9,33.9,129.4,0,123.3v45.8c43.1,6.7,86.3,14,129.3,21.7
					C120.9,174.3,111.6,158.1,101.4,142.6z"/>
				<path id="XMLID_134_" fill="#D99780" d="M36.1,188l15.3,41.2c47,7.9,93.8,16.4,140.6,25.6l-20.7-43.2
					C126.3,203.3,81.2,195.4,36.1,188z"/>
				<path id="XMLID_135_" fill="#95AA67" d="M179.3,200l0.6-0.3l0.2,0.5c37.1,7,74.1,14.3,111,22c-9.6-15.7-20.1-31-31.3-45.5
					c-46.8-10.7-93.7-20.8-140.8-30.4c9.5,15.4,18.3,31.3,26.2,47.5C156.6,195.7,168,197.8,179.3,200z"/>
				<path id="XMLID_143_" fill="#97A78A" d="M366.9,238.4l0.4-0.2l0.1,0.3c20.4,4.5,40.8,9.2,61.2,13.9
					c-8.9-14.5-18.6-28.6-28.9-42.1c-39.9-10.2-80-19.9-120.3-29.3c10.4,14.4,20.1,29.3,29,44.6C328,229.9,347.5,234.1,366.9,238.4z
					"/>
				<path id="XMLID_144_" fill="#EAB85F" d="M21.3,185.6c-7.1-1.1-14.2-2.3-21.3-3.4V221c12.2,1.9,24.4,3.9,36.6,5.9L21.3,185.6z"/>
			</g>
			<g id="XMLID_115_">
				<g id="XMLID_106_">
					
						<rect id="XMLID_124_" x="514.8" y="310.7" transform="matrix(0.4431 0.8965 -0.8965 0.4431 591.8078 -318.3898)" fill="#0B7C7A" width="74.7" height="13"/>
				</g>
				<g id="XMLID_111_">
					
						<rect id="XMLID_123_" x="340.8" y="265.9" transform="matrix(0.4031 0.9152 -0.9152 0.4031 473.2876 -180.852)" fill="#0B7C7A" width="68.9" height="13"/>
				</g>
				<g id="XMLID_112_">
					
						<rect id="XMLID_122_" x="154.7" y="226.8" transform="matrix(0.4321 0.9018 -0.9018 0.4321 317.677 -37.8446)" fill="#0B7C7A" width="68.4" height="13"/>
				</g>
				<g id="XMLID_113_">
					
						<rect id="XMLID_121_" x="4.5" y="200" transform="matrix(0.3484 0.9374 -0.9374 0.3484 217.0264 100.8034)" fill="#0B7C7A" width="63" height="13"/>
				</g>
				<g id="XMLID_114_">
					<path id="XMLID_120_" fill="#0B7C7A" d="M435.9,264.5c-11.5-19.8-24.4-39-38.4-57.1l10.3-8c14.4,18.5,27.6,38.2,39.4,58.5
						L435.9,264.5z"/>
				</g>
				<g id="XMLID_116_">
					<path id="XMLID_119_" fill="#0B7C7A" d="M297.5,232.6c-11.5-19.8-24.4-39-38.4-57.1l10.3-8c14.4,18.5,27.6,38.2,39.4,58.5
						L297.5,232.6z"/>
				</g>
				<g id="XMLID_117_">
					<path id="XMLID_118_" fill="#0B7C7A" d="M134.5,201.2c-9.9-20.6-21.3-40.7-33.9-59.8l10.9-7.2c12.9,19.6,24.6,40.2,34.8,61.4
						L134.5,201.2z"/>
				</g>
				<g id="XMLID_105_">
					<path id="XMLID_126_" fill="#EDBD59" d="M578.1,302.8c-206.3-54-417.9-97.2-628.8-128.3l1.9-12.9
						c211.4,31.2,423.5,74.5,630.2,128.6L578.1,302.8z"/>
				</g>
				<g id="XMLID_110_">
					<path id="XMLID_125_" fill="#EDBD59" d="M436.3,219.8C230,165.8,18.5,122.7-192.5,91.6l1.9-12.9
						c211.4,31.2,423.5,74.5,630.2,128.6L436.3,219.8z"/>
				</g>
				<g id="XMLID_104_">
					<path id="XMLID_127_" fill="#FFFFFF" d="M787.3,425c-286.8-95.1-584-164.1-883.4-205l1.8-12.9
						c300.2,41,598.2,110.1,885.7,205.5L787.3,425z"/>
				</g>
			</g>
		</g>
		<g id="XMLID_3_">
			<path id="XMLID_128_" fill="#95AA67" d="M0,841.9h595.3V546.8c-201.4,76-400,159.4-595.3,250V841.9z"/>
			<path id="XMLID_131_" fill="#067677" d="M0,666.4v130.5c195.3-90.6,393.9-174,595.3-250v-26.7C395.4,562.6,196.8,611.3,0,666.4z"
				/>
		</g>
		<path id="XMLID_150_" opacity="0.3" fill="#001739" d="M615.4,756.1c7.3-2.6,13.9-7.6,20.7-12c-1-3.4-2.2-6.7-3.4-10
			c-18.3-50.8-53.8-94-99.1-121c13.9-33.8,20.8-70.3,20.3-106.1c9.2-2.8,15.8-5.3,15.8-5.3c6.9-5.5,12.9-11.2,18.2-17c0,0,0,0,0,0
			c0.8-0.9,1.6-1.8,2.4-2.8c0.1-0.1,0.2-0.3,0.4-0.4c0.8-0.9,1.6-1.8,2.3-2.8c0.1-0.1,0.1-0.2,0.2-0.2c3.2-4,6.1-8,8.6-12
			c0-0.1,0.1-0.1,0.1-0.2c0.6-1,1.2-2,1.8-3c0-0.1,0.1-0.1,0.1-0.2c3-5.1,5.6-10.3,7.7-15.5c0,0,0-0.1,0.1-0.1
			c2.1-5.2,3.9-10.4,5.2-15.5c0,0,0-0.1,0-0.1c1.4-5.2,2.4-10.3,3-15.4c0,0,0,0,0,0c0.1-1,0.3-2,0.4-3c0,0,0-0.1,0-0.1
			c0.5-5,0.8-9.9,0.8-14.7c0-0.1,0-0.2,0-0.3c0-4.7-0.2-9.4-0.7-13.9c0-0.1,0-0.3,0-0.4c-0.1-0.8-0.2-1.6-0.3-2.4c0-0.1,0-0.3,0-0.4
			c-0.4-3.4-0.9-6.8-1.5-10c0-0.2-0.1-0.4-0.1-0.6c-0.1-0.7-0.3-1.4-0.4-2.1c0-0.2-0.1-0.4-0.1-0.7c-0.1-0.7-0.3-1.4-0.4-2.1
			c0-0.1-0.1-0.2-0.1-0.4c-0.5-2.2-1-4.4-1.5-6.4c-0.1-0.2-0.1-0.5-0.2-0.7c-0.1-0.6-0.3-1.2-0.5-1.7c-0.1-0.3-0.1-0.5-0.2-0.8
			c-0.2-0.6-0.3-1.1-0.5-1.6c-0.1-0.3-0.1-0.5-0.2-0.8c-0.5-1.8-1-3.5-1.6-5.2c-0.1-0.3-0.2-0.5-0.3-0.8c-0.1-0.5-0.3-0.9-0.4-1.4
			c-0.1-0.3-0.2-0.6-0.3-0.9c-0.1-0.4-0.3-0.9-0.4-1.3c-0.1-0.3-0.2-0.6-0.3-0.9c-0.1-0.4-0.3-0.8-0.4-1.2c-0.1-0.3-0.2-0.6-0.3-0.9
			c-0.3-0.7-0.5-1.4-0.7-2c-0.1-0.3-0.2-0.6-0.3-0.9c-0.1-0.3-0.3-0.7-0.4-1c-0.1-0.3-0.2-0.6-0.3-0.9c-0.1-0.3-0.3-0.7-0.4-1
			c-0.1-0.3-0.2-0.6-0.3-0.8c-0.1-0.3-0.2-0.6-0.4-0.9c-0.1-0.3-0.2-0.6-0.4-0.8c-0.2-0.4-0.4-0.9-0.6-1.3c-0.1-0.3-0.3-0.6-0.4-0.9
			c-0.1-0.3-0.2-0.5-0.4-0.8c-0.1-0.2-0.2-0.4-0.3-0.7c-0.1-0.3-0.2-0.5-0.4-0.8c-0.1-0.2-0.2-0.4-0.3-0.6c-0.1-0.3-0.2-0.5-0.4-0.8
			c-0.1-0.2-0.1-0.3-0.2-0.5c-0.5-1-0.9-1.9-1.3-2.6c0,0,0,0,0,0c-1.3-2.5-2.1-3.9-2.1-3.9c-36.7-26.1-85.2-29.7-85.2-29.7
			l-22.3-3.2c-3.5-12-10.8-21.8-19.5-30.3c-34.1,6.4-67,13.6-99.5,21.8c0,0,0,0,0,0c-2,0.5-4,1-6,1.5c-7.2-8.9-17-15.5-27.9-19
			c-0.2-0.1-0.3-0.1-0.5-0.1c-0.8-0.2-1.6-0.5-2.4-0.7c-1-0.3-2-0.5-3-0.7c-0.8-0.2-1.6-0.3-2.5-0.5c-0.2,0-0.4-0.1-0.6-0.1
			c-0.7-0.1-1.4-0.2-2.1-0.3c-0.1,0-0.3,0-0.4-0.1c-20.1-2.4-41.8,5-57.2,19.9c-10.3,10-17.5,23.2-20.8,37.1
			c-23.4,8.2-46.9,17-70.6,26.6c-0.3,0.1-0.6,0.3-1,0.4c-3.8,1.6-7.7,3.1-11.5,4.7l-16.2,37.9c0,0-26.4,13.4-56,41.6
			c-18.8,17.9-38.8,41.8-54.1,72.1h146.4l22.9-25c0,0-0.5,9.9,9.3,17.7l26.7-36.5c0,0,0,0,0,0c7.1,8.1,16.6,14.1,27,18.8
			c10,4.5,20.8,7.7,30.9,10.2c25.4,6.1,52.8,10.7,71.5,28.7c0,0,8,17.6,26.5,37.9c-29.5,47-45.2,102.7-42.4,156.9
			c9.1,8.9,21.7,13.9,35.4,15.6c35.1,13.6,74.9,15.8,113.3,18.8c36.8,2.9,75,7.4,107.3,23.2c0,0,0,0,0,0c0,0,0,0,0,0
			c1.2,0.6,2.4,1.2,3.6,1.8c0.4,0.2,0.8,0.4,1.2,0.6c0.8,0.4,1.6,0.9,2.4,1.3c0.5,0.3,0.9,0.5,1.4,0.8c0.7,0.4,1.4,0.8,2.2,1.3
			c0.5,0.3,0.9,0.6,1.4,0.9c0.7,0.4,1.4,0.9,2.1,1.3c0.5,0.3,0.9,0.6,1.4,0.9c0.7,0.5,1.4,0.9,2.1,1.4c0.4,0.3,0.9,0.6,1.3,0.9
			c0.7,0.5,1.5,1.1,2.2,1.6c0.4,0.3,0.7,0.5,1.1,0.8c1.1,0.8,2.2,1.7,3.2,2.5C633.5,772.3,624.7,764,615.4,756.1z"/>
		<g id="XMLID_39_">
			<g id="XMLID_33_">
				<path id="XMLID_37_" fill="#C60A08" d="M630,735.5c-23.9-55.4-68.9-101.5-123.9-126.5l-4.2,5.5
					C553.9,643.2,598.3,685.3,630,735.5z"/>
				<path id="XMLID_79_" fill="#EC2F07" d="M501.8,614.6l-58.3,76c58,13.1,114.2,36.7,164.9,67.7c9.6-1.6,17.4-7.7,25.5-13.1
					c-1.2-3.3-2.6-6.5-3.9-9.7C598.3,685.3,553.9,643.2,501.8,614.6z"/>
			</g>
			<path id="XMLID_35_" fill="#EC2F07" d="M641.9,781c-37.9-28.6-87.7-34.8-135.1-38.3s-96.7-6-138.2-29.1
				c34.6-12.3,70.6-23.3,105.9-33.5C534.9,703.5,595,736.2,641.9,781z"/>
			<g id="XMLID_36_">
				<path id="XMLID_81_" fill="#C60A08" d="M474.5,680.1c-26.8,7.7-54,16-80.7,24.9c7.3,4.2,15.1,7,23.3,7.3
					c61.9,2,123.4,16.8,179.3,43.3c6.4,3,12.8,6.3,19.1,9.7c9.3,4.3,18.1,9.5,26.4,15.7C595,736.2,534.9,703.5,474.5,680.1z"/>
			</g>
			<path id="XMLID_34_" fill="#06070B" d="M368.9,494.7l-8.4,25.4c0,0,32.3,61.3,108.7,85.9l37.9-133.1L368.9,494.7z"/>
			<path id="XMLID_32_" fill="#4B4245" d="M445.5,491c-63.8,51.6-98.7,136.8-89.3,218.3c22.2,19.9,61.2,19.4,88.4,7.2
				c27.1-12.2,47.6-36,62.3-61.9c33-57.9,40.7-129.7,20.6-193.3L445.5,491z"/>
			<g id="XMLID_76_">
				<path id="XMLID_80_" fill="#06070B" d="M527.5,461.3L498,472c7.8,24.4,12.6,49.7,13,75.2c0.6,42.6-11.9,86.2-39.5,118.6
					c-27.6,32.4-72.8,43.5-115.4,43.5c22.2,19.9,61.2,19.4,88.4,7.2c27.1-12.2,47.6-36,62.3-61.9
					C539.8,596.7,547.5,524.9,527.5,461.3z"/>
			</g>
			<path id="XMLID_84_" fill="#FFFFFF" d="M255.8,482.3c10.3,4.4,21.2,7.5,31.5,9.9c25.7,6,53.4,10.3,73.2,27.9
				c50.8,0.5,105-14,146.7-43l-18.6-54.2C415.9,463.2,337.6,485.7,255.8,482.3z"/>
			<path id="XMLID_85_" fill="#4B4245" d="M486.6,304l-22.4-3.1c-4.2-11.7-12.1-21.2-21.3-29.4c-106,19.6-200.9,46.7-300.5,87.9
				l-14,36.9c47.4,18.8,90.7,56.2,90.7,56.2c7.5,14,21.3,23.3,36.7,29.9c81.8,3.4,160.1-19.1,232.8-59.4l-14.2-41.4
				C502,346.4,486.6,304,486.6,304z"/>
			<g id="XMLID_96_">
				<path id="XMLID_99_" fill="#EC2F07" d="M256.8,421.5c28,18.8,62.2,28.1,95.8,26.1c23.9-48.5,20.6-109.4-7.9-155
					c-40.2,10-79.5,21.6-118.8,35.1C220.9,365.6,227.8,402,256.8,421.5z"/>
			</g>
			<g id="XMLID_38_">
				<path id="XMLID_107_" fill="#DCC5BD" d="M425.9,452.5C425.9,452.5,425.9,452.5,425.9,452.5C425.9,452.5,425.9,452.5,425.9,452.5
					C425.9,452.5,425.9,452.5,425.9,452.5z"/>
				<path id="XMLID_108_" fill="#DCC5BD" d="M488.6,422.9c-12.6,7-25.3,13.4-38.2,19.3c1.3,20.1,3.9,40.3,2.5,60.4
					c-0.1,0.7-0.2,1.4-0.3,2.2c19.5-6.9,38-16.1,54.6-27.7L488.6,422.9z"/>
				<path id="XMLID_109_" fill="#06070B" d="M474.8,382.7c-13.5,5.7-23.2,18.6-25,33.9c-0.3,8.5,0,17,0.6,25.6
					c12.9-5.9,25.6-12.3,38.2-19.3L474.8,382.7z"/>
			</g>
			<path id="XMLID_21_" fill="#FD814D" d="M295,426.2c15.6,8.3,33.7,11.9,51.4,10.1c13-35.4,15.3-75.9,5.1-112.3L295,426.2z"/>
			<g id="XMLID_19_">
				<path id="XMLID_53_" fill="#011A38" d="M227.5,393.4c-1.1,0-2-0.9-2-2c-0.1-8.6,4.5-17,11.7-21.5c1-0.6,2.2-0.3,2.8,0.7
					c0.6,1,0.3,2.2-0.7,2.8c-6.1,3.8-9.9,10.8-9.8,18C229.6,392.5,228.7,393.4,227.5,393.4C227.5,393.4,227.5,393.4,227.5,393.4z"/>
			</g>
			<path id="XMLID_40_" fill="#EC2F07" d="M268.5,414.3c-14.6-1.5-26.9-12.4-34-25.3c-7.1-12.9-9.8-27.7-12.2-42.2
				c5.1,1.4,10.7,0.2,16-0.2c5.3-0.4,11.2,0.2,14.6,4.2c2.3,2.6,3,6.1,3.7,9.5C260.4,378.5,264.9,396.1,268.5,414.3z"/>
			<path id="XMLID_16_" fill="#011A38" d="M271.9,412c-14.6-1.5-26.9-12.4-34-25.3c-7.1-12.9-9.8-27.7-12.2-42.2
				c5.1,1.4,10.7,0.2,16-0.2c5.3-0.4,11.2,0.2,14.6,4.2c2.3,2.6,3,6.1,3.7,9.5C263.7,376.2,268.2,393.8,271.9,412z"/>
			<g id="XMLID_20_">
				<path id="XMLID_18_" fill="#FDAC7F" d="M237.8,348.4c0.2,5.7,0.4,11.4,0.7,17.1c2,2.9,4.6,6,6.6,8.9c0.1,3.6-0.3,7.5-1.4,10.9
					c7.6,18.8,21.5,39,36.6,52.6c11.8-2.9,24.3-7,34.9-13c10.6-6,20-14.5,25.5-25.3c5.8-11.5,6.8-25,4.6-37.7
					c-1.3-7.2-3.6-14.5-8.5-20c-6.4-7.1-16.1-10.3-25.6-11.5c-12.2-1.6-24.8-0.7-36.6,2.8C262,336.8,250.4,345,237.8,348.4z"/>
				<g id="XMLID_41_">
					<path id="XMLID_43_" fill="#FD814D" d="M345.2,361.9c-1.3-7.2-3.6-14.5-8.5-20c-6.4-7.1-16.1-10.3-25.6-11.5
						c-12.2-1.6-24.8-0.7-36.6,2.8c-12.5,3.7-24.2,11.8-36.7,15.2c0.2,5.7,0.4,11.4,0.7,17.1c2,2.9,4.6,6,6.6,8.9c0,0.4,0,0.9,0,1.3
						c0.6,0.4,1.3,0.8,1.9,1.2c1.4,0.9,2.9,1.7,4.6,1.6c3.6-3,8-5.8,12.2-7.9c-0.4,6.6,0.6,13.3,1.3,19.8
						c-0.2-6.7,0.8-14.2,1.7-20.8c1.6,1.2,3.4,2.4,5,3.6c0.9,0.7,1.9,1.4,2.5,2.4c0.9,1.3,1.2,3,1.5,4.6c0.9,5.5,1.3,11.1,1.3,16.8
						c-3.7,1.3-8.3,1.5-12.2,1.4c7.3,6.3,17.9,8.5,27.1,5.6c0.8,1.8,1.6,3.6,2.3,5.4c-8.3,2.3-16.7,4.5-25,6.8
						c8,3.5,17.6,3.3,25.4-0.7c4.3-2.2,9.1-3.6,13.3-5.8c0.3-0.1,0.6-0.3,0.7-0.5c0.2-0.3,0.2-0.8,0.2-1.2c-0.1-2.4-0.2-4.8-0.2-7.2
						c-1.6-1-3.7-2.6-5.3-3.5c-4.7-2.8-10-5.6-15.2-4.2c-1.3,0.4-1.7,1.6-2.8,2.4c0.2-4-0.9-8-1.9-11.9c-1-3.7-2-7.4-3-11.1
						c3.3,0.7,7.1,1.3,10.4,2c0.9,0.2,1.9,0.4,2.8,0.2c0.9-0.2,1.6-0.8,2.3-1.4c5.4-4.6,10.8-9.1,16.2-13.7
						c-0.2,0.2,4.7,12.5,5.1,13.8c1.5,5.1,2.2,10.3,3.7,15.4c2.1,7.1,8.1,13.7,15.4,17.7c1.5-2.1,2.9-4.3,4-6.6
						C346.4,388.1,347.4,374.6,345.2,361.9z"/>
				</g>
			</g>
			<path id="XMLID_17_" fill="#011A38" d="M349.8,384.6c-1.3,3.9-2.8,7.9-5.7,10.9c-2.8,3-7.4,4.7-11.2,3.1c-4.3-1.8-6.1-7-7.1-11.5
				c-1.8-8.5-2.9-17.1-5.3-25.4c-2.5-8.3-6.5-16.5-13.3-21.9c8.3-6.2,18.7-8.7,28.7-5.8L349.8,384.6z"/>
			<g id="XMLID_14_">
				<path id="XMLID_4_" fill="#EC2F07" d="M343,396.9c5.6-2.1,10.5-14.2,11.3-17.9c5.5-22.9,3.3-55.2-8.8-75.7
					c-8.9-15.1-24.6-25.7-41.8-29.3c-21.9-4.5-45.8,2.6-61.6,18.4s-23,39.7-18.5,61.6c33.3,10.6,66.6,3.4,98.5-7.7
					c4.8-1.6,11.9,44.9,15.1,48.6C339.2,397.2,341.1,397.6,343,396.9z"/>
				<g id="XMLID_42_">
					<path id="XMLID_44_" fill="#FFF4F0" d="M283,306.9c7.9-12.4,19.3-22.6,32.5-29.2c-3.8-1.6-7.7-2.8-11.7-3.6
						c-3.6-0.7-7.3-1.2-11-1.3c-17.3,4.5-33,15.1-43.3,29.7c-11.1,15.7-15.7,35.8-13,54.8c11.5,2.2,22.9,2.4,34.2,1.3
						C269,340.7,273.3,322.2,283,306.9z"/>
				</g>
			</g>
			<g id="XMLID_15_">
				<g id="XMLID_7_">
					<path id="XMLID_52_" fill="#FFF4F0" d="M275.7,438.8c-12.4,0-24.4-3.1-35-9.2l-0.5-0.3l-0.3-0.5C234,418,229,404.6,225.7,391
						c-0.3-1.1,0.4-2.2,1.5-2.5c1.1-0.3,2.2,0.4,2.5,1.5c3.2,13.1,8,26,13.6,36.3c18.6,10.5,41.6,11.1,63.1,1.8
						c10.1-4.4,33.6-16.9,35.2-39.3c0.4-5.9,0.8-11.5,1.1-16.9c0.3-5.2,0.7-10.5,1.1-16.1c-3.7-4.4-9.2-8.8-14.1-11.3
						c-33.4,18.5-74.9,22.6-111.2,10.7c-1.1-0.3-1.7-1.5-1.3-2.6c0.3-1.1,1.5-1.7,2.6-1.3c35.6,11.6,76.3,7.5,108.9-11l0.9-0.5
						l1,0.5c5.8,2.8,12.6,8.3,16.9,13.5l0.5,0.6l-0.1,0.8c-0.4,5.9-0.8,11.4-1.1,16.8c-0.3,5.4-0.7,11-1.1,16.9
						c-1.8,24.6-26.9,38.1-37.7,42.7C297.4,436.5,286.4,438.8,275.7,438.8z"/>
				</g>
				<g id="XMLID_8_">
					<path id="XMLID_51_" fill="#FFF4F0" d="M261.7,400.2c-12.2,0-24.2-2.6-34.9-7.8c-1-0.5-1.4-1.7-1-2.7c0.5-1,1.7-1.4,2.7-1
						c18.8,9.1,41.6,9.8,62.4,2.1c17.7-6.6,35.2-18.5,53.7-36.5c0.8-0.8,2.1-0.8,2.9,0c0.8,0.8,0.8,2.1,0,2.9
						c-18.9,18.4-36.9,30.6-55.1,37.4C282.4,398.3,272,400.2,261.7,400.2z"/>
				</g>
				<g id="XMLID_9_">
					<path id="XMLID_50_" fill="#FFF4F0" d="M273.5,439.9c-0.7,0-1.5-0.4-1.8-1.1c-6.7-13.2-11-27.4-13-42.1
						c-0.2-1.1,0.6-2.2,1.8-2.3c1.1-0.2,2.2,0.6,2.3,1.8c1.9,14.2,6.2,28,12.6,40.8c0.5,1,0.1,2.2-0.9,2.7
						C274.1,439.9,273.8,439.9,273.5,439.9z"/>
				</g>
				<g id="XMLID_10_">
					<path id="XMLID_49_" fill="#FFF4F0" d="M303.6,434.8c-0.7,0-1.4-0.4-1.8-1c-7.2-12.6-11.8-26.8-13.3-41.2
						c-0.1-1.1,0.7-2.1,1.8-2.3c1.1-0.1,2.1,0.7,2.3,1.8c1.5,13.8,5.9,27.5,12.8,39.6c0.6,1,0.2,2.2-0.8,2.8
						C304.3,434.7,303.9,434.8,303.6,434.8z"/>
				</g>
				<g id="XMLID_11_">
					<path id="XMLID_48_" fill="#FFF4F0" d="M316.3,427.6c-0.8,0-1.5-0.4-1.8-1.1c-2.8-5.7-6.4-13.3-8.3-21.3l-0.1-0.5l0.2-0.5
						c3-9.7,7-19.1,11.8-28c0.5-1,1.8-1.4,2.8-0.8c1,0.5,1.4,1.8,0.8,2.8c-4.6,8.5-8.5,17.5-11.4,26.7c1.9,7.4,5.2,14.5,7.9,19.9
						c0.5,1,0.1,2.2-0.9,2.7C316.9,427.5,316.6,427.6,316.3,427.6z"/>
				</g>
				<g id="XMLID_12_">
					<path id="XMLID_47_" fill="#FFF4F0" d="M259.6,437.5c-0.6,0-1.1-0.2-1.5-0.7c-8.1-8.9-13.6-20.3-15.7-32.2l-10.8-11.5
						c-0.8-0.8-0.7-2.1,0.1-2.9c0.8-0.8,2.1-0.7,2.9,0.1l11.7,12.4l0.1,0.6c1.9,11.4,7.1,22.3,14.8,30.7c0.8,0.8,0.7,2.1-0.1,2.9
						C260.6,437.3,260.1,437.5,259.6,437.5z"/>
				</g>
				<g id="XMLID_13_">
					<path id="XMLID_46_" fill="#FFF4F0" d="M262.1,419.2c-1.3,0-2.5,0-3.8-0.1c-11-0.7-21.1-4.6-28.4-10.9c-0.9-0.7-0.9-2-0.2-2.9
						c0.7-0.9,2-0.9,2.9-0.2c6.6,5.8,15.8,9.3,26,9.9c8.6,0.5,17.9-0.9,28.4-4.3c21.4-7,40.5-19.7,55.2-36.7c0.7-0.9,2-0.9,2.9-0.2
						c0.9,0.7,0.9,2,0.2,2.9c-15.2,17.6-34.9,30.7-57,37.9C278.7,417.6,270.1,419.2,262.1,419.2z"/>
				</g>
			</g>
			<g id="XMLID_22_">
				<path id="XMLID_27_" fill="#FDAC7F" d="M208,465.1l11.1-12.7c0,0-17.7-15.3-42.9-31.2c-14.5,19.9-25.4,42.4-32,66.2
					c0,0,4.9,15.5,27.1,19.3l33.6-38.3l-22.4-16L208,465.1z"/>
				<polygon id="XMLID_54_" fill="#FD814D" points="182.6,452.4 205,468.4 208,465.1 				"/>
			</g>
			<path id="XMLID_26_" fill="#FD814D" d="M192.8,482.4c0,0,0.1,9.6,10.3,17.2l24.6-35.4c0,0,2.4-2.8-8.6-11.6L192.8,482.4z"/>
			<g id="XMLID_24_">
				<path id="XMLID_29_" fill="#FD814D" d="M159.6,448.2c4.8-9.4,10.4-18.5,16.7-27c-14.2-9-30.7-18.2-47.8-25
					c0,0-25.7,13-53.5,40.4C114.3,436.5,144,443.5,159.6,448.2z"/>
				<path id="XMLID_45_" fill="#C1764E" d="M74.8,436.6C57.1,454,38.5,477.3,25,506.7h146.4c-22.2-3.8-27.1-19.3-27.1-19.3
					c3.7-13.5,8.9-26.7,15.3-39.2C144,443.5,114.3,436.5,74.8,436.6z"/>
			</g>
			<g id="XMLID_23_">
				<path id="XMLID_56_" fill="#6B6165" d="M448.8,371.6c0,0-0.5-47.5,15.4-70.7c-4.2-11.7-12.1-21.2-21.3-29.4
					C442.9,271.5,435.8,308.5,448.8,371.6z"/>
				<path id="XMLID_58_" fill="#6B6165" d="M222.4,429.2c0,0-8.4-40.2-57-79.2c-7.6,3-15.3,6.1-23,9.3
					C142.3,359.3,171.5,369.9,222.4,429.2z"/>
			</g>
			<path id="XMLID_30_" fill="#BF0506" d="M478.8,502.9c-38.9-60.1-4.4-121.4-4.4-121.4s22.9,9.4,57.7,7.4l11.6,77.2l-5.5,26.6
				l-36.2,17.1L478.8,502.9z"/>
			<g id="XMLID_74_">
				<g id="XMLID_25_">
					
						<rect id="XMLID_75_" x="448" y="427.3" transform="matrix(1.390147e-002 0.9999 -0.9999 1.390147e-002 928.147 -82.3498)" fill="#011A38" width="115.7" height="4.1"/>
				</g>
				<g id="XMLID_57_">
					<g id="XMLID_28_">
						
							<rect id="XMLID_73_" x="503" y="390.5" transform="matrix(1.875037e-002 0.9998 -0.9998 1.875037e-002 897.7617 -111.2817)" fill="#FDAC7F" width="5.1" height="22.5"/>
					</g>
					<g id="XMLID_59_">
						
							<rect id="XMLID_72_" x="503.3" y="398.1" transform="matrix(1.875037e-002 0.9998 -0.9998 1.875037e-002 905.6105 -104.0692)" fill="#FDAC7F" width="5.1" height="22.5"/>
					</g>
					<g id="XMLID_60_">
						
							<rect id="XMLID_71_" x="503.5" y="405.7" transform="matrix(1.874671e-002 0.9998 -0.9998 1.874671e-002 913.4622 -96.8553)" fill="#FDAC7F" width="5.1" height="22.5"/>
					</g>
					<g id="XMLID_61_">
						
							<rect id="XMLID_70_" x="503.8" y="413.3" transform="matrix(1.874671e-002 0.9998 -0.9998 1.874671e-002 921.3115 -89.6433)" fill="#FDAC7F" width="5.1" height="22.5"/>
					</g>
					<g id="XMLID_62_">
						
							<rect id="XMLID_69_" x="504" y="420.9" transform="matrix(1.874671e-002 0.9998 -0.9998 1.874671e-002 929.1608 -82.4313)" fill="#FDAC7F" width="5.1" height="22.5"/>
					</g>
					<g id="XMLID_63_">
						
							<rect id="XMLID_68_" x="504.3" y="428.5" transform="matrix(1.874671e-002 0.9998 -0.9998 1.874671e-002 937.0101 -75.2193)" fill="#FDAC7F" width="5.1" height="22.5"/>
					</g>
					<g id="XMLID_64_">
						
							<rect id="XMLID_67_" x="504.5" y="436.1" transform="matrix(1.874671e-002 0.9998 -0.9998 1.874671e-002 944.8588 -68.0068)" fill="#FDAC7F" width="5.1" height="22.5"/>
					</g>
					<g id="XMLID_65_">
						
							<rect id="XMLID_66_" x="504.8" y="443.7" transform="matrix(1.874671e-002 0.9998 -0.9998 1.874671e-002 952.7086 -60.7953)" fill="#FDAC7F" width="5.1" height="22.5"/>
					</g>
				</g>
			</g>
			<path id="XMLID_31_" fill="#FDAC7F" d="M469.1,484.7l9.7,18.3c0,0,24.6-1.2,32.8-9.1l-32.8-0.1c0,0,3-18.9,15.7-17.8
				c12.7,1.1,40.3-3.1,49.1-9.9L532,388.9c0,0-30.6,10.2-57.7-7.4c0,0,18.1-26.6,12.3-77.5c0,0,48.8,3.5,87,28.9
				c0,0,68.2,104.5-20.5,176.8c0,0-51.2,19.3-69.6,10.4l-17.4-20.6C466.1,499.5,460.1,495.1,469.1,484.7z"/>
			<g id="XMLID_77_">
				<path id="XMLID_78_" fill="#FD814D" d="M537.5,350.8v20.9c0,0-17.8-20.5-52-22.2c-3.8,21.1-11.2,32.1-11.2,32.1
					c27.1,17.6,57.7,7.4,57.7,7.4l11.6,77.2C543.6,466.1,591.5,393.7,537.5,350.8z"/>
			</g>
			<g id="XMLID_83_">
				<path id="XMLID_88_" fill="#C1764E" d="M575.9,336.7L532,388.9l11.6,77.2l26.7,27.2C624.6,431.2,586.1,354.5,575.9,336.7z"/>
			</g>
			<g id="XMLID_93_">
				<g id="XMLID_55_">
					<path id="XMLID_86_" fill="#EC2F07" d="M414.8,471.7l8.6,1.8l13.2,14l-6.9,11.7l-39.3,10l-21.9-4.4l-13.2-14l2.6-4.6l-8.6-1.7
						l-13.2-14l6.7-11.8l39.3-10l22.1,4.4l13.1,13.9L414.8,471.7z M368,466.5l-1.3,2.3l4.6,4.9l4.3,0.9l10.6-2.7l1.4-2.4l-4.6-4.9
						l-4.4-0.9L368,466.5z M386.4,486l-1.3,2.3l4.7,5l4.3,0.9l10.6-2.7l1.4-2.3l-4.7-5l-4.4-0.8L386.4,486z"/>
				</g>
				<g id="XMLID_82_">
					<path id="XMLID_92_" fill="#FFFFFF" d="M382.2,448.8l22.1,4.4l13.1,13.9l-2.7,4.6l8.6,1.8l13.2,14l-6.9,11.7l-39.3,10
						l-21.9-4.4l-13.2-14l2.6-4.6l-8.6-1.7l-13.2-14l6.7-11.8L382.2,448.8 M375.6,474.6l10.6-2.7l1.4-2.4l-4.6-4.9l-4.4-0.9
						l-10.6,2.7l-1.3,2.3l4.6,4.9L375.6,474.6 M394.1,494.2l10.6-2.7l1.4-2.3l-4.7-5l-4.4-0.8l-10.6,2.7l-1.3,2.3l4.7,5L394.1,494.2
						 M381.8,446.3l-1.6,0.4l-39.3,10l-1.6,0.4l-0.5,0.9l-6.7,11.8l-0.5,0.9l0.8,0.9l13.2,14l0.8,0.9l1.7,0.3l4.5,0.9l-1.4,2.5
						l-0.5,0.9l0.8,0.9l13.2,14l0.8,0.9l1.7,0.3l21.9,4.4l1.7,0.3l1.6-0.4l39.3-10l1.6-0.4l0.5-0.9l6.9-11.7l0.5-0.9l-0.8-0.9
						l-13.2-14l-0.8-0.9l-1.7-0.3l-4.6-1l1.4-2.4l0.5-0.9l-0.8-0.9l-13.1-13.9l-0.8-0.9l-1.7-0.3l-22.1-4.4L381.8,446.3L381.8,446.3
						z M389.9,487.7l7.5-1.9l1,0.2l3,3.2l-0.3,0.5l-7.5,1.9l-0.9-0.2l-3.1-3.3L389.9,487.7L389.9,487.7z"/>
				</g>
			</g>
		</g>
	</g>
</g>
</svg>
